<svg xmlns="http://www.w3.org/2000/svg" width="177.935" height="32.367" viewBox="0 0 177.935 32.367">
  <g id="Group_13017" data-name="Group 13017" transform="translate(-112.57 -32)">
    <g id="Beinex-logo_1_" data-name="Beinex-logo (1)" transform="translate(112.57 32)">
      <path id="Path_18915" data-name="Path 18915" d="M70.474,32.362V0h5.981a4.587,4.587,0,0,1,4.019,2.377L92.184,23.667h.167V4.588A4.587,4.587,0,0,1,96.94,0h2.232V32.359H90.48L77.461,8.651H77.3V32.359H70.474Z" transform="translate(13.125 0)" fill="#04bbf2"/>
      <path id="Path_18916" data-name="Path 18916" d="M58.117,19.072H41.736c.388,2.828,1.186,4.636,2.39,5.884a7.1,7.1,0,0,0,5.345,1.872H60.452v5.533H47.6q-6.572,0-9.984-4.159T34.2,16.182q0-7.859,3.411-12.021T47.6,0H60.452V.945a4.586,4.586,0,0,1-4.588,4.588H49.471a13.925,13.925,0,0,0-2.349.209,5.435,5.435,0,0,0-2.308,1,6.588,6.588,0,0,0-1.893,2.393,12.461,12.461,0,0,0-1.186,4.159H58.117a1.835,1.835,0,0,1,1.835,1.835v2.113a1.835,1.835,0,0,1-1.835,1.833Z" transform="translate(6.37 0)" fill="#fff"/>
      <path id="Path_18917" data-name="Path 18917" d="M122.391,19.072H106.007c.388,2.828,1.186,4.636,2.393,5.884a7.1,7.1,0,0,0,5.345,1.872h10.981v5.533H111.873q-6.573,0-9.981-4.159T98.48,16.182q0-7.859,3.412-12.021T111.873,0h12.853V.945a4.588,4.588,0,0,1-4.587,4.588h-6.394a13.911,13.911,0,0,0-2.349.209,5.435,5.435,0,0,0-2.308,1A6.527,6.527,0,0,0,107.2,9.132a12.449,12.449,0,0,0-1.186,4.159h16.384a1.835,1.835,0,0,1,1.835,1.835v2.113a1.84,1.84,0,0,1-1.837,1.833Z" transform="translate(18.34 0)" fill="#fff"/>
      <path id="Path_18918" data-name="Path 18918" d="M60.692,32.361V2.3A2.294,2.294,0,0,1,62.986,0h2.234A2.294,2.294,0,0,1,67.515,2.3V32.361Z" transform="translate(11.303 0)" fill="#04bbf2"/>
      <path id="Path_18919" data-name="Path 18919" d="M134,2.154l5.641,8.995,5.639-8.995A4.593,4.593,0,0,1,149.169,0h5.572l-11.646,16.18,11.646,16.18h-8.109l-6.988-11.147-6.987,11.147h-8.113l11.6-16.18L124.544,0h5.573A4.581,4.581,0,0,1,134,2.154Z" transform="translate(23.194 0)" fill="#fff"/>
      <path id="Path_18920" data-name="Path 18920" d="M35.119,19.114A8.425,8.425,0,0,0,31.1,16.182a7.836,7.836,0,0,0,3.806-3.244,9.641,9.641,0,0,0,1.227-4.907,7.217,7.217,0,0,0-.812-3.494,7.535,7.535,0,0,0-2.163-2.5A9.975,9.975,0,0,0,30.084.523,12.132,12.132,0,0,0,26.569,0H2.767A2.767,2.767,0,0,0,0,2.769V5.327H24.45A4.957,4.957,0,0,1,27.964,6.41,3.922,3.922,0,0,1,29.106,9.4a4,4,0,0,1-1.142,3.017,4.91,4.91,0,0,1-3.514,1.1H13.87v5.324H24.45a4.957,4.957,0,0,1,3.514,1.083,3.922,3.922,0,0,1,1.142,2.994,3.984,3.984,0,0,1-1.142,3.037,4.958,4.958,0,0,1-3.514,1.083H13.881v5.324h12.69a17.382,17.382,0,0,0,3.723-.395A8.773,8.773,0,0,0,33.5,30.6a6.994,6.994,0,0,0,2.225-2.62,9.124,9.124,0,0,0,.833-4.138A7.822,7.822,0,0,0,35.119,19.114Z" transform="translate(0 0)" fill="#fff"/>
      <path id="Path_18921" data-name="Path 18921" d="M5.006,5.79H0v5.324H5.006Zm1.606,5.324V5.79h5.6v5.324Z" transform="translate(0 1.078)" fill="#04bbf2" fill-rule="evenodd"/>
      <path id="Path_18922" data-name="Path 18922" d="M5.006,11.4H0v5.324H5.006Zm1.606,5.324V11.4h5.6v5.324Z" transform="translate(0 2.123)" fill="#04bbf2" fill-rule="evenodd"/>
      <path id="Path_18923" data-name="Path 18923" d="M5.006,17.1H0V22.42H5.006ZM6.611,22.42V17.1h5.6V22.42Z" transform="translate(0 3.184)" fill="#04bbf2" fill-rule="evenodd"/>
      <path id="Path_18924" data-name="Path 18924" d="M5.006,22.794H0v5.324H5.006Zm1.606,5.324V22.794h5.6v5.324Z" transform="translate(0 4.245)" fill="#fff" fill-rule="evenodd"/>
    </g>
  </g>
</svg>
