<svg xmlns="http://www.w3.org/2000/svg" width="20" height="20" viewBox="0 0 20 20">
  <path id="Path_18965" data-name="Path 18965" d="M420.235,260.453a8,8,0,0,0,8.817,12.947,3.462,3.462,0,0,0-.24-1.722,12.3,12.3,0,0,0-2.253-2.844c-.338-.355-.316-.628-.195-1.437l.013-.091c.082-.554.22-.882,2.085-1.178a1.279,1.279,0,0,1,1.538.75l.116.172a1.827,1.827,0,0,0,.938.756c.165.075.37.17.645.325.652.373.652.794.652,1.716v.1a5.285,5.285,0,0,1-.1,1.034,8,8,0,0,0-3.1-12.336,7.85,7.85,0,0,0-1.577,1.265c-.135.185-.327,1.132-.95,1.21a3.689,3.689,0,0,1-.613-.009c-.622-.04-1.472-.1-1.744.644a2.93,2.93,0,0,0,.356,2.4.585.585,0,0,1,.046.519,1.015,1.015,0,0,1-.292.5,2.84,2.84,0,0,1-.419-.43,2.744,2.744,0,0,0-1.211-.96c-.184-.051-.386-.093-.583-.135-.549-.117-1.165-.249-1.315-.556a2.17,2.17,0,0,1-.105-.865,3.179,3.179,0,0,0-.2-1.345,1.272,1.272,0,0,0-.306-.43ZM426,276a10,10,0,1,1,7.071-2.929A10,10,0,0,1,426,276Z" transform="translate(-416 -256)" fill="#2bdff7"/>
</svg>
