<svg xmlns="http://www.w3.org/2000/svg" width="17.999" height="18.008" viewBox="0 0 17.999 18.008">
  <path id="Path_18983" data-name="Path 18983" d="M828.367,186.682a10.551,10.551,0,0,0,3.952,3.952l.882-1.234a1,1,0,0,1,1.294-.3,11.415,11.415,0,0,0,4.583,1.364,1,1,0,0,1,.921,1v4.462a1,1,0,0,1-.9,1A15.509,15.509,0,0,1,822.083,179.9a1,1,0,0,1,1-.9h4.457a1,1,0,0,1,1,.921A11.4,11.4,0,0,0,829.9,184.5a1,1,0,0,1-.3,1.3l-1.238.884Zm-2.522-.657,1.9-1.357a13.37,13.37,0,0,1-1.1-3.668h-2.637c-.01.166-.01.333-.01.5A13.5,13.5,0,0,0,837.5,195c.167,0,.334,0,.5-.01v-2.637a13.4,13.4,0,0,1-3.668-1.1l-1.357,1.9a12.374,12.374,0,0,1-1.588-.75l-.058-.033a12.554,12.554,0,0,1-4.7-4.7l-.033-.058a12.444,12.444,0,0,1-.75-1.588Z" transform="translate(-822 -179)" fill="#2bdff7"/>
</svg>
